PathFileType	4	(X/Y/Z)	S:\OneDrive - The University of Tokyo\ìåëÂéˆã∆\ÉoÉCÉÅÉJ\ë™íË\hirabayashi_2\Trimmed\Trimmed_BarRL0kg1.trc
DataRate	CameraRate	NumFrames	NumMarkers	Units	OrigDataRate	OrigDataStartFrame	OrigNumFrames
200.00	200.00	       22	12	mm	200.00	134	       234
Frame#	Time	BarR0			BarR50			BarR100			BarR130			BarR180			BarR230			BarL0			BarL50			BarL100			BarL130			BarL180			BarL230			
		X1	Y1	Z1	X2	Y2	Z2	X3	Y3	Z3	X4	Y4	Z4	X5	Y5	Z5	X6	Y6	Z6	X7	Y7	Z7	X8	Y8	Z8	X9	Y9	Z9	X10	Y10	Z10	X11	Y11	Z11	X12	Y12	Z12	

134	0.665	-575.99231	2755.48291	1664.48462	-604.90417	2306.35864	1662.47644	-637.33008	1851.97009	1662.12622	-660.75299	1349.42139	1662.11450	-690.09637	902.83276	1662.90186	-713.79321	454.77722	1664.12256	-1113.88538	2808.32227	1664.62622	-1140.92529	2356.55298	1667.99365	-1171.51050	1906.12390	1668.91919	-1199.11816	1404.03247	1669.09460	-1226.85266	952.73132	1668.40051	-1244.75598	506.51129	1667.62585	
135	0.670	-576.00159	2755.48462	1664.48511	-604.88000	2306.32520	1662.46545	-637.33191	1851.96692	1662.12695	-660.75024	1349.41138	1662.12683	-690.09143	902.83807	1662.88086	-713.78094	454.76309	1664.11816	-1113.91174	2808.34106	1664.61755	-1140.92029	2356.56665	1668.00598	-1171.52747	1906.14197	1668.90869	-1199.12781	1403.99695	1669.09265	-1226.85132	952.73572	1668.40308	-1244.75037	506.51160	1667.62073	
136	0.675	-575.99707	2755.48071	1664.48755	-604.88580	2306.34546	1662.47314	-637.34894	1851.96545	1662.10730	-660.74121	1349.43970	1662.11804	-690.08276	902.82251	1662.90894	-713.78705	454.75394	1664.12134	-1113.95032	2808.34058	1664.63318	-1140.91211	2356.55127	1668.00525	-1171.50195	1906.13208	1668.92102	-1199.12903	1404.00940	1669.09497	-1226.85645	952.74316	1668.40088	-1244.72461	506.51688	1667.62219	
137	0.680	-575.99847	2755.48096	1664.48523	-604.86798	2306.34546	1662.46228	-637.32434	1851.95056	1662.12756	-660.75812	1349.46033	1662.12183	-690.08478	902.82288	1662.90210	-713.77930	454.79749	1664.12988	-1113.91187	2808.35254	1664.64075	-1140.89978	2356.56226	1668.00037	-1171.51965	1906.11047	1668.92090	-1199.11890	1404.02332	1669.10046	-1226.86487	952.72815	1668.40686	-1244.75452	506.53467	1667.62573	
138	0.685	-575.99365	2755.48193	1664.49109	-604.89404	2306.35718	1662.46790	-637.32629	1851.93604	1662.13586	-660.75629	1349.45386	1662.12903	-690.09320	902.85864	1662.89612	-713.79004	454.77713	1664.12317	-1113.89966	2808.34009	1664.62854	-1140.90833	2356.58057	1667.98376	-1171.49304	1906.14624	1668.91821	-1199.12219	1404.04016	1669.09314	-1226.85889	952.70557	1668.39624	-1244.75305	506.50446	1667.62671	
139	0.690	-575.99567	2755.49023	1664.47900	-604.88062	2306.33862	1662.45654	-637.31592	1851.93225	1662.12170	-660.74457	1349.42407	1662.10974	-690.09912	902.83142	1662.88074	-713.79486	454.79968	1664.11633	-1113.87830	2808.35156	1664.62671	-1140.89465	2356.54419	1668.00940	-1171.53333	1906.14990	1668.90735	-1199.10669	1404.03540	1669.09119	-1226.84912	952.72968	1668.40137	-1244.76062	506.51819	1667.60938	
140	0.695	-575.99249	2755.48560	1664.48279	-604.91821	2306.34888	1662.47314	-637.34528	1851.97742	1662.10986	-660.73682	1349.45496	1662.10840	-690.09277	902.81726	1662.90137	-713.79407	454.77563	1664.12793	-1113.88049	2808.34302	1664.63269	-1140.92651	2356.55884	1667.99353	-1171.50171	1906.11743	1668.92517	-1199.11121	1404.04639	1669.10486	-1226.85437	952.73334	1668.40649	-1244.73950	506.51093	1667.61804	
141	0.700	-575.98145	2755.47266	1664.48608	-604.87036	2306.33936	1662.46448	-637.29889	1851.94702	1662.13379	-660.73010	1349.42334	1662.13611	-690.08246	902.82477	1662.87439	-713.80243	454.75693	1664.13074	-1113.92310	2808.35254	1664.61768	-1140.90417	2356.56323	1667.99634	-1171.47253	1906.12256	1668.93311	-1199.13110	1404.00049	1669.08936	-1226.85535	952.71570	1668.38733	-1244.74719	506.51038	1667.61853	
142	0.705	-575.99628	2755.48706	1664.48340	-604.87585	2306.34180	1662.46521	-637.31494	1851.96375	1662.12659	-660.75238	1349.40588	1662.12061	-690.10522	902.84308	1662.88245	-713.78564	454.76340	1664.12878	-1113.86169	2808.36108	1664.65161	-1140.91833	2356.55249	1668.00159	-1171.51294	1906.13318	1668.92419	-1199.11230	1404.08643	1669.09875	-1226.86377	952.71014	1668.40332	-1244.74670	506.51682	1667.62878	
143	0.710	-576.00159	2755.48340	1664.49023	-604.90637	2306.34961	1662.48938	-637.32916	1851.94800	1662.14893	-660.76581	1349.40125	1662.12036	-690.09888	902.83356	1662.88135	-713.79645	454.77182	1664.11658	-1113.93726	2808.32422	1664.63684	-1140.93359	2356.55542	1668.01160	-1171.52661	1906.13037	1668.91223	-1199.11987	1404.01758	1669.07336	-1226.85974	952.72327	1668.39453	-1244.75732	506.51282	1667.62036	
144	0.715	-575.98193	2755.46387	1664.48962	-604.88037	2306.35059	1662.45984	-637.32513	1851.96277	1662.13049	-660.76294	1349.44287	1662.12195	-690.09564	902.82239	1662.87695	-713.77325	454.75851	1664.14038	-1113.92053	2808.33008	1664.63794	-1140.90552	2356.57275	1668.00830	-1171.50781	1906.13757	1668.91443	-1199.10754	1404.04028	1669.09766	-1226.85608	952.74847	1668.40063	-1244.75488	506.50507	1667.62659	
145	0.720	-575.99854	2755.48340	1664.47961	-604.89502	2306.34521	1662.46558	-637.31525	1851.91589	1662.14221	-660.75714	1349.44531	1662.11487	-690.09210	902.84137	1662.88367	-713.80725	454.81723	1664.12305	-1113.94824	2808.34814	1664.60840	-1140.92542	2356.53296	1668.00562	-1171.50146	1906.14771	1668.92273	-1199.11389	1404.06445	1669.08472	-1226.85864	952.72870	1668.40076	-1244.73975	506.50763	1667.61609	
146	0.725	-576.00409	2755.47949	1664.47278	-604.88782	2306.35352	1662.47009	-637.31793	1851.94861	1662.12366	-660.73285	1349.43726	1662.11670	-690.09076	902.81891	1662.89087	-713.80402	454.78040	1664.11865	-1113.91589	2808.33032	1664.63293	-1140.91541	2356.56860	1667.99646	-1171.51038	1906.11450	1668.92126	-1199.11804	1404.00842	1669.08789	-1226.85693	952.72821	1668.39063	-1244.75391	506.51437	1667.61389	
147	0.730	-575.97614	2755.47021	1664.47961	-604.90814	2306.33618	1662.46851	-637.31329	1851.93738	1662.11646	-660.75897	1349.46106	1662.11938	-690.09644	902.81873	1662.88123	-713.80450	454.77338	1664.12183	-1113.93115	2808.37061	1664.63342	-1140.91113	2356.57983	1667.98792	-1171.48230	1906.15552	1668.92151	-1199.11230	1404.02832	1669.08484	-1226.84265	952.73596	1668.40491	-1244.73877	506.51364	1667.61414	
148	0.735	-575.99445	2755.47656	1664.49622	-604.91541	2306.35791	1662.47498	-637.31873	1851.94226	1662.11182	-660.74774	1349.43042	1662.11499	-690.09485	902.82635	1662.88562	-713.78113	454.77994	1664.13086	-1113.89807	2808.32617	1664.63000	-1140.90942	2356.56299	1667.99707	-1171.51160	1906.16101	1668.90417	-1199.12317	1404.02539	1669.07996	-1226.85376	952.73108	1668.41016	-1244.74854	506.50214	1667.63464	
149	0.740	-575.99341	2755.49609	1664.48572	-604.89063	2306.35474	1662.47754	-637.32935	1851.94006	1662.14844	-660.74341	1349.45386	1662.12317	-690.10095	902.81921	1662.87598	-713.80505	454.75998	1664.12671	-1113.94348	2808.32813	1664.63892	-1140.92004	2356.55713	1667.99146	-1171.49023	1906.10425	1668.91614	-1199.12109	1404.03943	1669.09680	-1226.85657	952.72351	1668.40771	-1244.75635	506.50217	1667.61731	
150	0.745	-575.97943	2755.47754	1664.48694	-604.90143	2306.35962	1662.46765	-637.32794	1851.96155	1662.14026	-660.72919	1349.46252	1662.12146	-690.10046	902.82312	1662.89111	-713.76953	454.76477	1664.12695	-1113.91455	2808.31885	1664.62598	-1140.92383	2356.56519	1668.00073	-1171.49463	1906.10303	1668.91675	-1199.12061	1404.03076	1669.09802	-1226.85596	952.74164	1668.41162	-1244.76086	506.52524	1667.62915	
151	0.750	-575.97571	2755.48242	1664.48096	-604.89313	2306.35059	1662.45142	-637.31305	1851.93115	1662.11633	-660.76117	1349.46509	1662.12512	-690.09711	902.85229	1662.90405	-713.79089	454.78329	1664.12378	-1113.93640	2808.37158	1664.62561	-1140.93091	2356.58057	1668.00476	-1171.49817	1906.13770	1668.92651	-1199.12524	1404.01819	1669.09546	-1226.85754	952.73450	1668.40613	-1244.75574	506.51700	1667.62427	
152	0.755	-575.98987	2755.49585	1664.48425	-604.87122	2306.34424	1662.45496	-637.32349	1851.95129	1662.10156	-660.73895	1349.46094	1662.11548	-690.09680	902.82855	1662.88208	-713.77496	454.78662	1664.12463	-1113.90283	2808.34985	1664.61938	-1140.91016	2356.56934	1667.98682	-1171.50867	1906.12170	1668.91150	-1199.11938	1404.03650	1669.08057	-1226.85522	952.72192	1668.39209	-1244.74768	506.51099	1667.61438	
153	0.760	-575.99481	2755.48120	1664.47583	-604.88605	2306.34351	1662.48303	-637.26703	1851.93225	1662.11548	-660.75317	1349.44165	1662.10876	-690.09412	902.80402	1662.87378	-713.78906	454.77478	1664.12439	-1113.92065	2808.33203	1664.62500	-1140.90894	2356.55811	1668.00220	-1171.53687	1906.12524	1668.91760	-1199.11829	1404.02136	1669.10339	-1226.85742	952.72668	1668.39490	-1244.76233	506.49359	1667.61987	
154	0.765	-575.98895	2755.47632	1664.47729	-604.89172	2306.33057	1662.47498	-637.32703	1851.97156	1662.12305	-660.74756	1349.43188	1662.11511	-690.08405	902.83026	1662.87903	-713.77765	454.78680	1664.11865	-1113.93750	2808.35962	1664.64075	-1140.91125	2356.55811	1668.00452	-1171.52710	1906.11523	1668.92847	-1199.11902	1404.02234	1669.07593	-1226.86633	952.72900	1668.39636	-1244.75623	506.51184	1667.61926	
155	0.770	-575.99902	2755.48413	1664.49561	-604.87842	2306.34521	1662.47632	-637.30682	1851.93945	1662.13135	-660.75146	1349.46338	1662.11047	-690.09546	902.84766	1662.88513	-713.78479	454.77496	1664.13000	-1113.94861	2808.34277	1664.62390	-1140.91223	2356.57373	1668.00598	-1171.49573	1906.12146	1668.91492	-1199.12048	1404.00037	1669.09814	-1226.85522	952.73309	1668.40930	-1244.75671	506.51608	1667.62329	
